<svg width="97" height="16" viewBox="0 0 97 16" fill="none" xmlns="http://www.w3.org/2000/svg">
    <path fill-rule="evenodd" clip-rule="evenodd"
          d="M0.882492 2.95581C0.882492 2.67322 1.01169 2.53193 1.27009 2.53193H9.7621C9.91479 2.53193 10.0234 2.57461 10.088 2.65997C10.1526 2.74534 10.1849 2.85278 10.1849 2.9823V4.53654C10.1849 4.64251 10.1482 4.7367 10.0748 4.81913C10.0014 4.90155 9.8913 4.94276 9.74448 4.94276H3.48119V7.62735H8.30859C8.42604 7.61557 8.52001 7.6406 8.59048 7.70241C8.66095 7.76423 8.69619 7.86873 8.69619 8.01591V9.6143C8.69619 9.72027 8.66683 9.81447 8.6081 9.89689C8.54937 9.97931 8.45541 10.0205 8.32621 10.0205H3.48119V13.235H9.97351C10.138 13.235 10.2466 13.2703 10.2995 13.3409C10.3523 13.4116 10.3787 13.5205 10.3787 13.6677V15.2749C10.3787 15.5222 10.2495 15.6458 9.99113 15.6458H1.27009C1.16438 15.6458 1.07336 15.6164 0.997011 15.5575C0.920665 15.4986 0.882492 15.4044 0.882492 15.2749V2.95581ZM19.1438 12.7051C19.2437 12.6404 19.3274 12.6006 19.3949 12.5859C19.4624 12.5712 19.5197 12.5638 19.5667 12.5638C19.6665 12.5697 19.7517 12.6227 19.8221 12.7228L20.0336 13.0142L20.659 13.9061C20.6884 13.9473 20.7119 13.99 20.7295 14.0342C20.7471 14.0783 20.7559 14.1181 20.7559 14.1534C20.7559 14.2476 20.7236 14.3315 20.659 14.4051C20.5944 14.4787 20.5092 14.5537 20.4035 14.6302C19.9044 14.9953 19.3655 15.2896 18.7871 15.5133C18.2086 15.7371 17.5729 15.8489 16.8799 15.8489C16.3572 15.8489 15.8507 15.7797 15.3603 15.6414C14.8699 15.503 14.4119 15.3088 13.9861 15.0585C13.5603 14.8083 13.1712 14.5081 12.8189 14.1578C12.4665 13.8075 12.1626 13.4175 11.9071 12.9877C11.6517 12.5579 11.4549 12.0958 11.3169 11.6013C11.1789 11.1067 11.1099 10.5916 11.1099 10.0558C11.1099 9.5201 11.1789 9.00497 11.3169 8.51044C11.4549 8.01591 11.6517 7.55376 11.9071 7.12399C12.1626 6.69422 12.4665 6.30419 12.8189 5.9539C13.1712 5.6036 13.5603 5.30335 13.9861 5.05314C14.4119 4.80294 14.8699 4.60866 15.3603 4.47031C15.8507 4.33195 16.3572 4.26278 16.8799 4.26278C17.5318 4.26278 18.1484 4.36286 18.7298 4.56303C19.3112 4.7632 19.828 5.03401 20.2802 5.37547L20.2714 5.36664C20.3536 5.44906 20.4344 5.52118 20.5137 5.583C20.5929 5.64481 20.6326 5.74048 20.6326 5.87C20.6326 5.90533 20.6311 5.94654 20.6282 5.99363C20.6252 6.04073 20.6091 6.08489 20.5797 6.1261L19.8574 7.22996C19.7399 7.40658 19.6107 7.49489 19.4698 7.49489C19.3699 7.49489 19.2584 7.44485 19.135 7.34476C18.8355 7.09161 18.4861 6.88556 18.0867 6.7266C17.6874 6.56764 17.2763 6.48816 16.8535 6.48816C16.3954 6.48816 15.9652 6.58383 15.5629 6.77517C15.1606 6.96651 14.8068 7.22554 14.5014 7.55229C14.196 7.87903 13.9553 8.25876 13.7791 8.69147C13.6029 9.12419 13.5148 9.57897 13.5148 10.0558C13.5148 10.5445 13.6029 11.0037 13.7791 11.4335C13.9553 11.8632 14.1946 12.2371 14.497 12.555C14.7995 12.8729 15.1533 13.1246 15.5585 13.31C15.9637 13.4955 16.3954 13.5882 16.8535 13.5882C17.3526 13.5882 17.7843 13.5014 18.1484 13.3277C18.5125 13.154 18.8443 12.9465 19.1438 12.7051ZM21.5399 10.0558C21.5399 9.5201 21.6089 9.0035 21.7469 8.50602C21.885 8.00855 22.0802 7.54493 22.3327 7.11516C22.5853 6.68539 22.8877 6.29536 23.2401 5.94507C23.5925 5.59477 23.983 5.29452 24.4117 5.04431C24.8404 4.79411 25.3 4.59983 25.7903 4.46148C26.2807 4.32312 26.7931 4.25395 27.3275 4.25395C27.8561 4.25395 28.367 4.32312 28.8603 4.46148C29.3536 4.59983 29.8132 4.79411 30.239 5.04431C30.6647 5.29452 31.0538 5.59477 31.4062 5.94507C31.7585 6.29536 32.061 6.68539 32.3135 7.11516C32.566 7.54493 32.7613 8.00855 32.8993 8.50602C33.0373 9.0035 33.1063 9.5201 33.1063 10.0558C33.1063 10.5916 33.0373 11.1067 32.8993 11.6013C32.7613 12.0958 32.566 12.5565 32.3135 12.9833C32.061 13.4101 31.7585 13.8001 31.4062 14.1534C31.0538 14.5066 30.6647 14.8083 30.239 15.0585C29.8132 15.3088 29.3536 15.503 28.8603 15.6414C28.367 15.7797 27.8561 15.8489 27.3275 15.8489C26.7931 15.8489 26.2807 15.7797 25.7903 15.6414C25.3 15.503 24.8404 15.3088 24.4117 15.0585C23.983 14.8083 23.5925 14.5066 23.2401 14.1534C22.8877 13.8001 22.5853 13.4101 22.3327 12.9833C22.0802 12.5565 21.885 12.0958 21.7469 11.6013C21.6089 11.1067 21.5399 10.5916 21.5399 10.0558ZM24.0241 10.0558C24.0241 10.5268 24.1063 10.9728 24.2708 11.3937C24.4352 11.8147 24.6642 12.1811 24.9579 12.4932C25.2515 12.8052 25.5995 13.0525 26.0018 13.235C26.4041 13.4175 26.843 13.5087 27.3187 13.5087C27.7827 13.5087 28.2129 13.4175 28.6093 13.235C29.0057 13.0525 29.3478 12.8052 29.6355 12.4932C29.9233 12.1811 30.1479 11.8147 30.3094 11.3937C30.4709 10.9728 30.5517 10.5268 30.5517 10.0558C30.5517 9.59074 30.4709 9.14626 30.3094 8.72238C30.1479 8.29849 29.9233 7.92613 29.6355 7.60527C29.3478 7.28441 29.0057 7.02832 28.6093 6.83698C28.2129 6.64565 27.7827 6.54998 27.3187 6.54998C26.843 6.54998 26.4041 6.64565 26.0018 6.83698C25.5995 7.02832 25.2515 7.28441 24.9579 7.60527C24.6642 7.92613 24.4352 8.29849 24.2708 8.72238C24.1063 9.14626 24.0241 9.59074 24.0241 10.0558ZM45.6711 3.48566C45.7416 3.52687 45.8003 3.57691 45.8473 3.63579C45.8943 3.69466 45.9178 3.76531 45.9178 3.84773C45.9178 3.91249 45.9001 3.98019 45.8649 4.05084L45.0104 5.50794C44.9106 5.64334 44.8049 5.71105 44.6933 5.71105C44.6581 5.71105 44.6169 5.70369 44.57 5.68897C44.523 5.67425 44.476 5.65217 44.429 5.62274C44.059 5.35781 43.6626 5.15176 43.2398 5.00458C42.8169 4.85739 42.3677 4.7838 41.892 4.7838C41.293 4.7838 40.7439 4.89713 40.2447 5.12379C39.7455 5.35045 39.3138 5.65806 38.9497 6.04662C38.5856 6.43518 38.3023 6.89144 38.0996 7.41541C37.897 7.93938 37.7957 8.50161 37.7957 9.10211C37.7957 9.69673 37.897 10.2545 38.0996 10.7756C38.3023 11.2966 38.5856 11.7514 38.9497 12.1399C39.3138 12.5285 39.7455 12.8346 40.2447 13.0583C40.7439 13.2821 41.293 13.3939 41.892 13.3939C42.3677 13.3939 42.8213 13.3203 43.253 13.1732C43.6846 13.026 44.0825 12.8199 44.4466 12.555C44.4936 12.5197 44.5421 12.4961 44.592 12.4843C44.6419 12.4726 44.6845 12.4637 44.7197 12.4578C44.8196 12.4578 44.9223 12.5226 45.028 12.6521L45.9001 14.1269C45.9354 14.1975 45.953 14.2623 45.953 14.3212C45.953 14.4036 45.928 14.4713 45.8781 14.5243C45.8282 14.5773 45.7709 14.6273 45.7063 14.6744C45.1543 15.0453 44.5597 15.3323 43.9225 15.5354C43.2853 15.7385 42.6143 15.8401 41.9096 15.8401C41.2871 15.8401 40.6895 15.7606 40.1169 15.6016C39.5443 15.4427 39.0085 15.216 38.5093 14.9217C38.0101 14.6273 37.5564 14.2755 37.1483 13.8664C36.7401 13.4572 36.3892 13.0039 36.0956 12.5064C35.8019 12.0089 35.5758 11.4732 35.4173 10.8992C35.2587 10.3252 35.1794 9.72616 35.1794 9.10211C35.1794 8.47806 35.2587 7.87903 35.4173 7.30502C35.5758 6.73101 35.8019 6.19233 36.0956 5.68897C36.3892 5.18561 36.7401 4.72788 37.1483 4.31577C37.5564 3.90366 38.0101 3.55189 38.5093 3.26047C39.0085 2.96905 39.5443 2.7424 40.1169 2.5805C40.6895 2.41859 41.2871 2.33765 41.9096 2.33765C42.6085 2.33765 43.2721 2.43626 43.9005 2.63348C44.5289 2.8307 45.1191 3.11476 45.6711 3.48566ZM58.6646 15.1248C58.6646 15.2307 58.6425 15.3176 58.5985 15.3853C58.5545 15.453 58.4972 15.506 58.4267 15.5442C58.3563 15.5825 58.2755 15.609 58.1845 15.6237C58.0934 15.6384 57.998 15.6458 57.8982 15.6458H56.797C56.6091 15.6458 56.4784 15.5958 56.405 15.4957C56.3316 15.3956 56.2773 15.269 56.2421 15.1159L56.1892 14.3653C55.9837 14.5714 55.7561 14.7642 55.5065 14.9437C55.2569 15.1233 54.9882 15.2793 54.7005 15.4118C54.4127 15.5442 54.1073 15.6473 53.7843 15.7209C53.4613 15.7944 53.1295 15.8312 52.7889 15.8312C52.2603 15.8312 51.7509 15.7621 51.2605 15.6237C50.7701 15.4854 50.3106 15.2911 49.8819 15.0409C49.4532 14.7907 49.0641 14.489 48.7147 14.1357C48.3652 13.7825 48.0657 13.391 47.8161 12.9612C47.5665 12.5314 47.3727 12.0693 47.2347 11.5748C47.0967 11.0802 47.0277 10.5651 47.0277 10.0294C47.0277 9.49361 47.0967 8.97848 47.2347 8.48394C47.3727 7.98941 47.5665 7.52727 47.8161 7.09749C48.0657 6.66772 48.3652 6.2777 48.7147 5.9274C49.0641 5.57711 49.4532 5.27686 49.8819 5.02665C50.3106 4.77644 50.7701 4.58216 51.2605 4.44381C51.7509 4.30546 52.2603 4.23629 52.7889 4.23629C53.1647 4.23629 53.523 4.27602 53.8636 4.3555C54.2042 4.43498 54.5228 4.54684 54.8194 4.69108C55.116 4.83532 55.3905 5.00899 55.643 5.2121C55.8956 5.41521 56.1246 5.63745 56.3302 5.87883L56.4535 4.93393C56.4828 4.82796 56.5107 4.74112 56.5372 4.67342C56.5636 4.60571 56.5959 4.55125 56.6341 4.51004C56.6722 4.46883 56.7207 4.44087 56.7794 4.42615C56.8381 4.41143 56.9116 4.40407 56.9996 4.40407H57.8806C57.9745 4.40407 58.0685 4.4129 58.1624 4.43057C58.2564 4.44823 58.3416 4.47619 58.4179 4.51446C58.4943 4.55273 58.5545 4.60571 58.5985 4.67342C58.6425 4.74112 58.6646 4.82501 58.6646 4.9251V15.1248ZM49.5031 10.0293C49.5031 10.5003 49.5853 10.9463 49.7497 11.3672C49.9142 11.7882 50.1432 12.1576 50.4369 12.4755C50.7305 12.7934 51.0755 13.0451 51.4719 13.2305C51.8683 13.416 52.3014 13.5087 52.7713 13.5087C53.247 13.5087 53.6918 13.416 54.1059 13.2305C54.5199 13.0451 54.8796 12.7934 55.185 12.4755C55.4904 12.1576 55.7311 11.7882 55.9073 11.3672C56.0835 10.9463 56.1716 10.5003 56.1716 10.0293C56.1716 9.56425 56.0835 9.12124 55.9073 8.7003C55.7311 8.27936 55.4904 7.90994 55.185 7.59202C54.8796 7.27411 54.5199 7.02096 54.1059 6.83257C53.6918 6.64417 53.247 6.54998 52.7713 6.54998C52.3014 6.54998 51.8683 6.64417 51.4719 6.83257C51.0755 7.02096 50.7305 7.27411 50.4369 7.59202C50.1432 7.90994 49.9142 8.27936 49.7497 8.7003C49.5853 9.12124 49.5031 9.56425 49.5031 10.0293ZM62.7256 15.1159C62.6727 15.2926 62.6155 15.425 62.5538 15.5133C62.4921 15.6016 62.3732 15.6458 62.197 15.6458H60.8669C60.4969 15.6458 60.3119 15.4692 60.3119 15.1159V1.63117C60.3119 1.4781 60.3647 1.35153 60.4705 1.25144C60.5762 1.15136 60.6966 1.10132 60.8316 1.10132H62.2851C62.4613 1.10132 62.5993 1.15283 62.6992 1.25586C62.799 1.35889 62.8489 1.48399 62.8489 1.63117V5.68455C63.2718 5.24889 63.7577 4.90155 64.3068 4.64251C64.8559 4.38347 65.4858 4.25395 66.1964 4.25395C66.9892 4.25395 67.7277 4.40554 68.4119 4.70874C69.0961 5.01193 69.6921 5.42551 70.2001 5.94948C70.7081 6.47345 71.106 7.08719 71.3938 7.79072C71.6815 8.49425 71.8254 9.24928 71.8254 10.0558C71.8254 10.8565 71.6815 11.6086 71.3938 12.3121C71.106 13.0157 70.7081 13.6294 70.2001 14.1534C69.6921 14.6773 69.0961 15.0909 68.4119 15.3941C67.7277 15.6973 66.9892 15.8489 66.1964 15.8489C65.8499 15.8489 65.5181 15.8106 65.201 15.7341C64.8838 15.6576 64.5814 15.5531 64.2936 15.4206C64.0058 15.2881 63.7372 15.1307 63.4876 14.9482C63.238 14.7657 63.0104 14.5714 62.8049 14.3653L62.7256 15.1159ZM69.3501 10.0558C69.3501 9.59074 69.2679 9.14626 69.1034 8.72238C68.939 8.29849 68.71 7.92613 68.4163 7.60527C68.1227 7.28441 67.7762 7.02832 67.3768 6.83698C66.9775 6.64565 66.5459 6.54998 66.0819 6.54998C65.6121 6.54998 65.1702 6.64565 64.7561 6.83698C64.3421 7.02832 63.9809 7.28441 63.6726 7.60527C63.3643 7.92613 63.122 8.29849 62.9458 8.72238C62.7697 9.14626 62.6816 9.59074 62.6816 10.0558V10.1177C62.6874 10.5828 62.7814 11.0199 62.9635 11.429C63.1455 11.8382 63.3892 12.1973 63.6946 12.5064C64 12.8155 64.3568 13.0598 64.7649 13.2394C65.1731 13.4189 65.6121 13.5087 66.0819 13.5087C66.5459 13.5087 66.9775 13.4175 67.3768 13.235C67.7762 13.0525 68.1227 12.8052 68.4163 12.4932C68.71 12.1811 68.939 11.8147 69.1034 11.3937C69.2679 10.9728 69.3501 10.5268 69.3501 10.0558ZM73.1732 4.96925C73.1732 4.81618 73.2173 4.68813 73.3054 4.58511C73.3935 4.48208 73.5227 4.43057 73.693 4.43057H75.1553C75.2199 4.43057 75.286 4.44381 75.3535 4.47031C75.4211 4.4968 75.4812 4.53507 75.5341 4.58511C75.587 4.63515 75.631 4.69255 75.6662 4.75731C75.7015 4.82207 75.7191 4.89272 75.7191 4.96925V15.1159C75.7191 15.4692 75.5341 15.6458 75.1641 15.6458H73.7018C73.3494 15.6458 73.1732 15.4692 73.1732 15.1159V4.96925ZM73.1732 1.066C73.1732 0.71276 73.3465 0.536144 73.693 0.536144H75.1729C75.3374 0.536144 75.4695 0.580298 75.5693 0.668608C75.6692 0.756917 75.7191 0.889379 75.7191 1.066V2.3818C75.7191 2.51721 75.6721 2.64525 75.5781 2.76594C75.4842 2.88663 75.352 2.94698 75.1817 2.94698H73.7018C73.3494 2.94698 73.1732 2.75859 73.1732 2.3818V1.066ZM77.9301 4.95159C77.9301 4.86917 77.9654 4.78086 78.0359 4.68666C78.1063 4.59247 78.1739 4.53359 78.2385 4.51004C78.2854 4.46295 78.3559 4.43793 78.4499 4.43498C78.5438 4.43204 78.6319 4.43057 78.7142 4.43057H79.6039C79.7742 4.43057 79.9005 4.48649 79.9827 4.59835C80.0649 4.71021 80.1207 4.83384 80.15 4.96925L80.2469 5.90532C80.382 5.70516 80.5479 5.50794 80.7447 5.31366C80.9414 5.11937 81.1748 4.9457 81.445 4.79263C81.7151 4.63956 82.0235 4.51593 82.3699 4.42174C82.7164 4.32754 83.107 4.28044 83.5416 4.28044C84.2346 4.28044 84.8512 4.40554 85.3915 4.65575C85.9318 4.90596 86.3869 5.24889 86.7569 5.68455C87.1269 6.12021 87.4073 6.6324 87.5982 7.22113C87.789 7.80986 87.8845 8.44273 87.8845 9.11977V15.01C87.8845 15.2219 87.8345 15.3809 87.7347 15.4868C87.6349 15.5928 87.491 15.6458 87.3031 15.6458H85.9641C85.7292 15.6458 85.5721 15.6016 85.4928 15.5133C85.4135 15.425 85.3739 15.269 85.3739 15.0453V9.16392C85.3739 8.8519 85.321 8.54723 85.2153 8.24993C85.1096 7.95262 84.9554 7.68622 84.7528 7.45073C84.5502 7.21524 84.2991 7.02685 83.9996 6.88555C83.7001 6.74426 83.3536 6.67361 82.9602 6.67361C82.69 6.67361 82.4096 6.72807 82.1189 6.83698C81.8282 6.9459 81.5624 7.10044 81.3217 7.30061C81.0809 7.50077 80.8812 7.74362 80.7226 8.02915C80.5641 8.31469 80.4819 8.63701 80.476 8.99614V14.7186C80.476 14.8304 80.4701 14.9423 80.4584 15.0541C80.4466 15.166 80.4217 15.2661 80.3835 15.3544C80.3453 15.4427 80.291 15.5133 80.2205 15.5663C80.15 15.6193 80.059 15.6458 79.9474 15.6458H78.4939C78.3001 15.6458 78.1577 15.6002 78.0667 15.5089C77.9757 15.4177 77.9301 15.2867 77.9301 15.1159V4.95159ZM90.4391 12.4843C90.5625 12.6786 90.7181 12.8464 90.906 12.9877C91.094 13.129 91.2863 13.2453 91.483 13.3365C91.6798 13.4278 91.8677 13.494 92.0468 13.5352C92.2259 13.5764 92.3683 13.597 92.4741 13.597C92.6385 13.597 92.8323 13.5794 93.0555 13.544C93.2786 13.5087 93.4886 13.4454 93.6853 13.3542C93.8821 13.2629 94.0494 13.1393 94.1874 12.9833C94.3254 12.8273 94.3945 12.6286 94.3945 12.3872C94.3945 12.1517 94.3401 11.9604 94.2315 11.8132C94.1228 11.666 93.976 11.5438 93.791 11.4467C93.606 11.3496 93.3946 11.2686 93.1568 11.2039C92.9189 11.1391 92.6679 11.0685 92.4036 10.9919C91.7869 10.8271 91.2613 10.6284 90.8268 10.3958C90.3922 10.1633 90.0354 9.89689 89.7564 9.59664C89.4775 9.29638 89.2734 8.9667 89.1442 8.60758C89.015 8.24845 88.9504 7.85695 88.9504 7.43307C88.9504 6.9562 89.0444 6.52055 89.2323 6.1261C89.4202 5.73165 89.6845 5.39313 90.0251 5.11054C90.3657 4.82795 90.7754 4.60866 91.254 4.45264C91.7326 4.29663 92.2626 4.21863 92.844 4.21863C93.2551 4.21863 93.6222 4.25542 93.9452 4.32901C94.2682 4.4026 94.5677 4.51299 94.8437 4.66017C95.1197 4.80735 95.3796 4.9928 95.6233 5.21652C95.8671 5.44023 96.1152 5.70221 96.3677 6.00246C96.4558 6.10844 96.4998 6.21146 96.4998 6.31155C96.4998 6.41752 96.4411 6.5176 96.3237 6.6118C96.2356 6.68244 96.1313 6.77075 96.0109 6.87672C95.8905 6.98269 95.7716 7.08572 95.6542 7.1858C95.5367 7.28589 95.4251 7.37125 95.3194 7.4419C95.2137 7.51255 95.1256 7.54787 95.0551 7.54787C94.9259 7.54787 94.7997 7.47134 94.6763 7.31827C94.5471 7.1652 94.4179 7.03126 94.2887 6.91646C94.1595 6.80166 94.0245 6.70746 93.8835 6.63387C93.7426 6.56028 93.5899 6.50435 93.4254 6.46609C93.261 6.42782 93.0819 6.40869 92.8881 6.40869C92.7295 6.40869 92.5636 6.43223 92.3904 6.47933C92.2171 6.52643 92.0586 6.59708 91.9147 6.69127C91.7708 6.78547 91.6504 6.8988 91.5535 7.03126C91.4566 7.16373 91.4081 7.31238 91.4081 7.47722C91.4081 7.66562 91.4683 7.82604 91.5887 7.95851C91.7091 8.09097 91.8618 8.20577 92.0468 8.30291C92.2318 8.40005 92.433 8.481 92.6502 8.54576C92.8675 8.61052 93.0701 8.66939 93.2581 8.72238C93.7984 8.87545 94.2946 9.05206 94.7468 9.25223C95.199 9.4524 95.5881 9.69525 95.914 9.98078C96.24 10.2663 96.494 10.6019 96.676 10.9875C96.8581 11.3731 96.9491 11.825 96.9491 12.343C96.9491 12.8906 96.8405 13.3807 96.6232 13.8134C96.4059 14.2461 96.1049 14.6126 95.7202 14.9128C95.3356 15.2131 94.8804 15.4427 94.3548 15.6016C93.8292 15.7606 93.2581 15.8401 92.6414 15.8401C92.2714 15.8401 91.8956 15.8003 91.5139 15.7209C91.1321 15.6414 90.7666 15.5177 90.4171 15.35C90.0677 15.1822 89.7447 14.9673 89.4481 14.7053C89.1515 14.4433 88.9034 14.1328 88.7037 13.7736C88.6157 13.6265 88.5716 13.494 88.5716 13.3763C88.5716 13.2997 88.5907 13.2335 88.6289 13.1776C88.667 13.1216 88.7184 13.0672 88.783 13.0142L89.7697 12.2547C89.8577 12.2017 89.937 12.1753 90.0075 12.1753C90.0897 12.1753 90.1631 12.2032 90.2277 12.2591C90.2923 12.3151 90.3628 12.3901 90.4391 12.4843Z"
          fill="white"/>
</svg>
